<svg xmlns="http://www.w3.org/2000/svg" version="1.1" width="1000" height="600" viewBox="-10 -100 800 900">
    <!--Update the title with your handle-->
    <title>Niels</title>
    
    <circle cx="150" cy="350" r="40" stroke="grey" stroke-width="3" fill="pink" />
    
    <rect width="100" height="100" x="20" y="120" stroke="grey" stroke-width="3" fill="pink" />
    
    <line x1="0" y1="0" x2="200" y2="200" style="stroke:rgb(255,0,0);stroke-width:2" />
    
    <polygon points="100,10 40,198 190,78 10,78 160,198"
  style="fill:lime;stroke:purple;stroke-width:5;fill-rule:evenodd;" opacity="0.25" />
    
    <path id="lineAB" d="M 100 350 l 150 -300" stroke="red"
  stroke-width="3" fill="none" />
    <path id="lineBC" d="M 250 50 l 150 300" stroke="red"
  stroke-width="3" fill="none" />
  <path d="M 175 200 l 150 0" stroke="green" stroke-width="3"
  fill="none" />
  
    <text x="0" y="15" fill="red" transform="rotate(30 20,40)" font-size="4em" font-family="Rockwell">Bananen!</text>
    
    <g stroke="green" fill="white" stroke-width="5">
     <circle cx="25" cy="25" r="25"/>
     <circle cx="40" cy="25" r="15"/>
     <circle cx="55" cy="25" r="15"/>
     <circle cx="75" cy="25" r="15"/>
   </g>
    
    <g stroke="aqua" fill="papayawhip" stroke-width="15">
     <circle cx="25" cy="525" r="150"/>
     <circle cx="140" cy="525" r="100"/>
     <circle cx="200" cy="525" r="50"/>
     <circle cx="220" cy="525" r="25"/>
   </g>
    
</svg>
